<?xml version="1.0" encoding="UTF-8"?>
<svg id="Layer_2" data-name="Layer 2" xmlns="http://www.w3.org/2000/svg" width="100" height="100" viewBox="0 0 50 49">
  <defs>
    <style>
      .cls-1 {
        fill: none;
      }

      .cls-2 {
        fill: #fff;
      }
    </style>
  </defs>
  <g id="Layer_1-2" data-name="Layer 1">
    <g>
      <path class="cls-2" d="M50,43.88H0L13.48,22.37,25.39,0l6.12,11.52,9.96,18.92,8.52,13.45ZM25.47,11.73c-4.89,9.11-9.65,17.97-14.52,27.05h28.7c-4.76-9.09-9.41-17.94-14.18-27.05Z"/>
      <polygon class="cls-2" points="11.28 44.62 2.98 49 4.43 44.71 11.28 44.62"/>
      <polygon class="cls-2" points="38.75 44.62 47.05 49 45.6 44.71 38.75 44.62"/>
      <path class="cls-1" d="M25.47,11.73c4.78,9.11,9.42,17.96,14.18,27.05H10.95c4.87-9.08,9.63-17.95,14.52-27.05Z"/>
    </g>
  </g>
</svg>
